<svg xmlns="http://www.w3.org/2000/svg" viewBox="0 0 32 32">
  <path fill="#F38020" d="M12,8 C14.209,8 16,9.791 16,12 C16,12.216 15.983,12.428 15.95,12.634 C16.582,12.136 17.382,11.84 18.25,11.84 C20.183,11.84 21.75,13.407 21.75,15.34 C21.75,15.455 21.744,15.569 21.733,15.681 C22.483,15.258 23.339,15.015 24.25,15.015 C26.321,15.015 28,16.694 28,18.765 C28,20.836 26.321,22.515 24.25,22.515 L6.75,22.515 C4.679,22.515 3,20.836 3,18.765 C3,16.694 4.679,15.015 6.75,15.015 C7.661,15.015 8.517,15.258 9.267,15.681 C9.256,15.569 9.25,15.455 9.25,15.34 C9.25,13.407 10.817,11.84 12.75,11.84 C13.618,11.84 14.418,12.136 15.05,12.634 C15.017,12.428 15,12.216 15,12 C15,9.791 16.791,8 19,8" />
</svg>
